<?xml version="1.0" encoding="UTF-8" standalone="no"?>
<!-- Created with Inkscape (http://www.inkscape.org/) -->

<svg
   width="187.0056mm"
   height="143.60793mm"
   viewBox="0 0 187.0056 143.60793"
   version="1.1"
   id="svg1"
   inkscape:version="1.3 (0e150ed, 2023-07-21)"
   sodipodi:docname="Bird Flat Final.svg"
   xmlns:inkscape="http://www.inkscape.org/namespaces/inkscape"
   xmlns:sodipodi="http://sodipodi.sourceforge.net/DTD/sodipodi-0.dtd"
   xmlns="http://www.w3.org/2000/svg"
   xmlns:svg="http://www.w3.org/2000/svg">
  <sodipodi:namedview
     id="namedview1"
     pagecolor="#ffffff"
     bordercolor="#000000"
     borderopacity="0.25"
     inkscape:showpageshadow="2"
     inkscape:pageopacity="0.0"
     inkscape:pagecheckerboard="0"
     inkscape:deskcolor="#d1d1d1"
     inkscape:document-units="mm"
     showguides="false"
     inkscape:zoom="0.4579622"
     inkscape:cx="450.91057"
     inkscape:cy="328.62974"
     inkscape:current-layer="svg1" />
  <defs
     id="defs1" />
  <path
     id="path3"
     style="display:inline;fill:#000000;fill-opacity:1;stroke:#000000;stroke-width:0.26751;stroke-linecap:round;stroke-linejoin:round;stroke-dasharray:none"
     inkscape:label="Bird Flat Final"
     d="M 149.91695 0.0067179362 C 146.68245 -0.063192994 143.43637 0.43679535 140.27671 1.1322306 C 137.30894 1.785442 134.40986 2.7821596 131.61471 3.9744344 C 129.51527 4.8699475 126.69019 6.5271993 125.57063 7.1928426 C 124.4511 7.8584829 122.36751 9.2841813 120.94042 10.361125 C 119.51337 11.438068 117.90882 12.699497 117.37475 13.164054 C 116.84069 13.628615 115.59053 14.713684 114.59662 15.575277 C 113.60271 16.436871 111.47494 18.247506 110.14366 19.847884 C 107.92384 22.516405 107.99181 22.718225 105.77804 23.26473 C 104.78448 23.510006 102.92715 24.578857 101.54471 25.316284 C 100.16226 26.053711 98.359492 27.110672 97.538232 27.665495 C 96.716993 28.220315 95.883559 28.833472 95.686149 29.027686 C 95.488769 29.2219 93.541056 30.776451 91.358248 32.482255 C 89.17544 34.188061 86.563156 36.259821 85.552917 37.086108 C 84.542668 37.912397 80.715349 41.583376 77.04801 45.244267 C 73.380674 48.905159 69.220348 52.840354 67.80258 53.988953 C 66.384811 55.137551 64.496609 56.646367 63.60697 57.342236 C 62.717311 58.038096 60.620275 59.535416 58.94679 60.669165 C 57.273302 61.802904 54.713454 63.364201 53.258248 64.138721 C 51.80304 64.91325 49.600382 66.150624 48.363456 66.888424 C 47.12653 67.626233 45.161997 68.952915 43.997831 69.836564 C 42.833666 70.720223 40.291875 72.569432 38.349597 73.946391 C 36.407293 75.323349 34.280416 76.827533 33.623271 77.288822 C 32.966125 77.750122 31.837499 78.643078 31.114897 79.273197 C 30.392267 79.903307 29.661694 80.537927 29.491223 80.683447 C 29.320779 80.828967 28.288194 81.654481 27.19679 82.517961 C 26.105385 83.38143 24.880465 84.44948 24.474992 84.891459 C 24.069518 85.333429 23.66935 85.968159 23.58564 86.301709 C 23.501927 86.635259 23.586124 87.091844 23.772709 87.316634 C 23.959266 87.541434 24.538051 87.91128 25.058936 88.138289 C 26.006064 88.551049 26.006251 88.551157 24.655343 89.181637 C 23.91234 89.528396 21.888275 90.17858 20.157426 90.62651 C 18.42655 91.074449 16.509545 91.6069 15.897221 91.8099 C 15.284896 92.01289 13.320362 92.891436 11.531596 93.762236 C 9.7428292 94.633035 7.4270297 95.807749 6.3856567 96.372929 C 5.3442848 96.938108 3.9750638 97.80486 3.3429484 98.29891 C 2.710833 98.792959 1.7469547 99.655263 1.2009603 100.21507 C 0.65499379 100.77488 0.13383135 101.5296 0.042891439 101.89197 C -0.04804647 102.25433 0.010409446 102.84184 0.17259928 103.19784 C 0.33481512 103.55382 0.77421019 103.96164 1.1492839 104.10424 C 1.5243305 104.24684 2.2878147 104.36366 2.8458211 104.36366 C 3.4038266 104.36366 4.9392013 103.94693 6.258016 103.43761 C 7.5768296 102.92828 8.9628317 102.51157 9.3379313 102.51157 C 9.7130039 102.51157 10.491213 102.75214 11.067025 103.04591 C 11.642837 103.33967 12.631755 103.65105 13.264823 103.73785 C 13.950967 103.8319 15.178656 103.72209 16.304431 103.46604 C 17.343051 103.22981 18.798582 102.79768 19.538859 102.50589 C 20.279162 102.21409 21.977638 101.73278 23.313306 101.43619 C 24.649 101.1396 27.110801 100.41355 28.78429 99.822847 C 30.457777 99.232138 32.660437 98.644127 33.679081 98.516467 C 34.697726 98.388807 36.840854 98.110227 38.441581 97.896867 C 40.042309 97.683507 43.137937 97.365213 45.320748 97.189933 C 47.503558 97.014663 52.206533 96.894349 55.77179 96.922249 C 58.832731 96.946197 61.40494 97.06819 63.228182 97.221456 C 63.975467 100.99655 66.750928 104.31269 67.390202 105.3915 C 71.128681 108.74037 74.243704 111.50014 77.607666 114.62298 C 80.161658 116.99392 82.591422 119.49724 85.172579 121.83856 C 88.324792 124.69787 91.666027 127.43096 94.843823 130.18068 C 94.387293 132.26428 94.881249 133.15556 94.193217 133.32106 C 91.43873 133.98372 87.283827 133.72769 84.963289 134.79797 C 82.472062 135.94698 82.467938 137.14293 83.765946 138.86543 C 84.794805 139.12591 86.444189 138.35648 88.057157 138.23756 C 89.294726 138.14629 92.166384 138.00309 94.518262 137.80658 C 95.031651 137.76369 97.679115 137.98029 99.957723 136.97665 C 101.19087 137.72876 101.96215 137.37522 103.25933 137.48308 C 105.28969 137.65191 106.54048 137.59358 108.44093 137.80451 C 110.06181 137.88645 113.6217 139.75073 114.86534 140.26276 C 116.58164 140.96938 118.21798 142.61369 119.03253 143.37161 C 119.45673 143.76634 121.19408 142.75699 121.63289 142.40836 C 122.09004 142.04517 122.65018 142.45598 123.1439 142.75511 C 124.10357 143.33656 124.61736 143.60004 125.28434 142.69672 C 126.59443 140.92254 126.22311 140.21917 125.582 139.4473 C 124.68792 138.37089 123.22352 138.75675 122.64006 136.76478 C 122.23305 135.63609 115.70376 133.84739 114.74907 133.75979 C 112.73231 133.57478 110.96846 133.58281 109.70338 133.30349 C 107.80995 132.88541 106.32763 132.01559 103.12239 130.37602 C 102.1744 129.89111 101.14984 128.71039 100.25848 128.13998 C 98.055051 125.8461 94.19701 122.16313 91.870361 120.08828 C 85.640138 113.73641 82.338677 111.46178 77.343083 104.11302 C 76.966105 103.56166 77.844375 100.96402 78.726461 98.692167 C 80.047492 98.71081 81.497825 98.716665 83.332381 98.673564 C 83.45005 98.670799 83.571902 98.658643 83.689982 98.65496 C 84.912568 101.95112 86.475829 103.51001 86.960067 103.63192 C 91.843742 106.65887 97.565001 109.08258 103.0056 111.51309 C 106.21889 112.94859 109.52103 114.176 112.7957 115.4653 C 116.36956 116.87238 120.20205 118.29393 123.68496 119.63352 C 123.67647 120.16 123.52538 120.50867 123.16147 120.69134 C 120.57108 121.99173 118.3398 122.09387 115.7149 123.45086 C 114.82037 123.91329 113.52789 125.04944 114.57699 127.46044 C 116.02038 128.10149 117.01939 126.3831 119.11883 126.18661 C 120.00143 126.104 119.80549 126.27462 123.34803 125.37013 C 123.84719 125.24268 125.12859 125.41003 127.40308 124.39706 C 128.63928 125.14408 130.87465 125.17662 132.17229 125.27917 C 134.20326 125.43966 136.17089 125.72044 138.07219 125.92358 C 141.78773 126.16507 144.90869 127.55046 146.73575 129.23656 C 147.16154 129.62954 148.30289 129.05212 148.74028 128.7017 C 149.19591 128.33664 149.41692 128.92312 149.94072 129.16576 C 150.57686 129.46035 150.96226 129.90718 151.67653 129.09083 C 153.0926 127.47328 152.43557 126.16398 152.22533 125.42542 C 151.99244 124.60739 149.26724 124.28812 148.97385 123.61416 C 148.67087 122.79914 144.6088 121.7264 143.65376 121.6427 C 141.63627 121.46597 139.87274 121.4812 138.60653 121.20707 C 136.71134 120.79676 135.0437 120.02951 131.83175 118.40311 C 130.64555 117.80246 130.46041 117.03913 129.47323 116.60632 C 129.40267 116.55352 129.32743 116.50817 129.24121 116.48178 C 126.46139 115.6309 122.40373 113.58629 118.92039 112.15801 C 110.61968 108.7821 105.16314 107.0782 97.564071 102.1054 C 95.927425 101.00079 97.783401 98.130989 98.932979 96.625627 C 99.837235 96.333845 100.46552 96.034961 101.57261 95.694934 C 103.71417 95.037185 105.84192 94.325663 107.92726 93.506954 C 109.89579 92.734095 111.82075 91.851278 113.72898 90.939669 C 116.09458 89.80955 118.47377 88.689148 120.72441 87.344539 C 123.34889 85.776591 125.83218 83.976726 128.28209 82.147957 C 130.65093 80.379709 132.98934 78.559335 135.17676 76.571037 C 137.61074 74.358639 139.91916 72.000496 142.08435 69.524438 C 143.8293 67.52898 145.38609 65.375154 146.97036 63.249886 C 148.18403 61.621768 149.40408 59.99468 150.50761 58.289982 C 152.20078 55.674405 154.72143 51.235373 155.22877 50.222774 C 155.98672 48.709956 157.59723 46.321842 158.89366 44.445866 C 159.73808 43.223942 160.66819 42.063393 161.56947 40.882776 C 162.33639 39.878138 163.09263 38.864608 163.89387 37.887093 C 164.84327 36.728761 166.20049 35.073083 166.83374 34.489368 C 167.467 33.90565 168.61628 33.051772 169.59637 32.467269 C 170.78123 31.760631 171.79757 30.989317 173.33464 30.69115 C 174.87171 30.39298 175.53048 30.134793 176.64813 29.960962 C 177.82029 29.778654 179.02227 29.831572 180.1921 29.634884 C 181.07988 29.485619 181.96835 29.296314 182.81468 28.989445 C 183.50116 28.74053 184.20982 28.480107 184.78304 28.027747 C 185.13554 27.749572 185.33732 27.237535 185.63931 26.988017 C 185.8396 26.822515 186.23451 27.290041 186.55709 27.12806 C 187.03669 26.887255 187.00512 26.150649 187.00512 25.595337 C 187.00512 25.190548 186.59545 24.266623 186.092 23.536031 C 185.58977 22.807168 184.66704 21.787832 184.04148 21.271053 C 183.41593 20.754275 181.83252 19.692114 180.52283 18.91099 C 179.21315 18.129864 177.92365 17.36118 177.65737 17.202568 C 177.36435 17.028017 176.20306 14.89218 175.37638 13.837398 L 172.92588 10.711491 C 172.24534 9.8431743 170.3134 8.043712 168.85274 6.8889852 C 167.48972 5.8114463 166.02832 4.8488817 164.50469 4.0137085 C 162.6338 2.9881715 160.70202 2.0204133 158.65698 1.4123169 C 155.82862 0.57130276 152.86699 0.070487872 149.91695 0.0067179362 z " />
</svg>
